<svg width="1044" height="241" viewBox="0 0 1044 241" fill="none" xmlns="http://www.w3.org/2000/svg">
<!-- DataFlare Logo -->
<!-- Icon Section -->
<path d="M0.937012 27.0463C0.937012 12.1815 12.9873 0.131226 27.8521 0.131226H214.783C229.647 0.131226 241.698 12.1815 241.698 27.0463V213.977C241.698 228.842 229.647 240.892 214.783 240.892H27.852C12.9873 240.892 0.937012 228.842 0.937012 213.977V27.0463Z" fill="#1E40AF"/>
<!-- Data Flow Elements -->
<circle cx="80" cy="80" r="12" fill="#60A5FA"/>
<circle cx="160" cy="80" r="12" fill="#60A5FA"/>
<circle cx="80" cy="160" r="12" fill="#60A5FA"/>
<circle cx="160" cy="160" r="12" fill="#60A5FA"/>
<!-- Connection Lines -->
<path d="M92 80L148 80" stroke="#93C5FD" stroke-width="3" stroke-linecap="round"/>
<path d="M80 92L80 148" stroke="#93C5FD" stroke-width="3" stroke-linecap="round"/>
<path d="M160 92L160 148" stroke="#93C5FD" stroke-width="3" stroke-linecap="round"/>
<path d="M92 160L148 160" stroke="#93C5FD" stroke-width="3" stroke-linecap="round"/>
<!-- Central Data Hub -->
<circle cx="120" cy="120" r="20" fill="#3B82F6"/>
<circle cx="120" cy="120" r="8" fill="#FFFFFF"/>
<!-- Text Section -->
<text x="280" y="90" font-family="Arial, sans-serif" font-size="48" font-weight="bold" fill="#1F2937">Data</text>
<text x="280" y="150" font-family="Arial, sans-serif" font-size="48" font-weight="bold" fill="#3B82F6">Flare</text>
<!-- Subtitle -->
<text x="280" y="180" font-family="Arial, sans-serif" font-size="16" fill="#6B7280">Data Orchestration Platform</text>
</svg>
