<svg preserveAspectRatio="true" viewBox="0 0 1044 241" fill="none" xmlns="http://www.w3.org/2000/svg">
<path d="M323.487 27.6414H283.212V210.944H323.487V174.435L338.55 158.736L372.269 210.944H418.091L365.891 130.359L416.133 78.0381H366.402L323.487 123.994V27.6414Z" fill="#26282D"/>
<text x="480" y="150" font-family="Arial, sans-serif" font-size="80" font-weight="bold" fill="#26282D">DataFlare</text>
<path d="M0.937012 27.0463C0.937012 12.1815 12.9873 0.131226 27.8521 0.131226H214.783C229.647 0.131226 241.698 12.1815 241.698 27.0463V213.977C241.698 228.842 229.647 240.892 214.783 240.892H27.852C12.9873 240.892 0.937012 228.842 0.937012 213.977V27.0463Z" fill="#1E40AF"/>
<path d="M115.404 101.178C118.669 97.9129 123.963 97.9129 127.228 101.178L140.65 114.6C143.915 117.865 143.915 123.159 140.65 126.424L127.228 139.846C123.963 143.111 118.669 143.111 115.404 139.846L101.982 126.424C98.7173 123.159 98.7173 117.865 101.982 114.6L115.404 101.178Z" fill="#3B82F6"/>
<path d="M177.223 101.071C180.429 97.8643 185.628 97.8643 188.835 101.071L202.468 114.704C205.675 117.911 205.675 123.11 202.468 126.317L188.835 139.95C185.628 143.157 180.429 143.157 177.223 139.95L163.589 126.317C160.383 123.11 160.383 117.911 163.589 114.704L177.223 101.071Z" fill="#60A5FA"/>
<path d="M115.476 39.3488C118.682 36.143 123.88 36.143 127.085 39.3488L140.715 52.978C143.92 56.1838 143.92 61.3814 140.715 64.5872L127.085 78.2164C123.88 81.4222 118.682 81.4222 115.476 78.2164L101.847 64.5872C98.6412 61.3814 98.6412 56.1838 101.847 52.978L115.476 39.3488Z" fill="#93C5FD"/>
<circle cx="200" cy="80" r="8" fill="#F59E0B"/>
<circle cx="180" cy="60" r="6" fill="#FCD34D"/>
<circle cx="220" cy="100" r="5" fill="#FEF3C7"/>
</svg>
