<svg preserveAspectRatio="true" viewBox="0 0 1044 241" fill="none" xmlns="http://www.w3.org/2000/svg">
<path d="M323.487 27.6415H283.212V210.944H323.487V174.435L338.55 158.736L372.269 210.944H418.091L365.891 130.359L416.133 78.0382H366.402L323.487 123.994V27.6415Z" fill="white"/>
<text x="480" y="150" font-family="Arial, sans-serif" font-size="80" font-weight="bold" fill="white">DataFlare</text>
<path d="M0.937012 27.0463C0.937012 12.1815 12.9873 0.131226 27.8521 0.131226H214.783C229.647 0.131226 241.698 12.1815 241.698 27.0463V213.977C241.698 228.842 229.647 240.892 214.783 240.892H27.852C12.9873 240.892 0.937012 228.842 0.937012 213.977V27.0463Z" fill="#1E40AF"/>
<path d="M115.37 101.148C118.635 97.8839 123.927 97.8839 127.191 101.148L140.609 114.566C143.873 117.83 143.873 123.122 140.609 126.386L127.191 139.804C123.927 143.068 118.635 143.068 115.37 139.804L101.953 126.387C98.6885 123.122 98.6885 117.83 101.953 114.566L115.37 101.148Z" fill="#3B82F6"/>
<path d="M177.17 101.041C180.376 97.8354 185.574 97.8354 188.78 101.041L202.409 114.67C205.615 117.876 205.615 123.074 202.409 126.28L188.78 139.909C185.574 143.115 180.376 143.115 177.17 139.909L163.541 126.28C160.335 123.074 160.335 117.876 163.541 114.67C166.747 111.465 177.17 101.041 177.17 101.041Z" fill="#60A5FA"/>
<path d="M115.476 39.3488C118.682 36.143 123.88 36.143 127.085 39.3488L140.715 52.978C143.92 56.1838 143.92 61.3814 140.715 64.5872L127.085 78.2164C123.88 81.4222 118.682 81.4222 115.476 78.2164L101.847 64.5872C98.6412 61.3814 98.6412 56.1838 101.847 52.978L115.476 39.3488Z" fill="#93C5FD"/>
<circle cx="200" cy="80" r="8" fill="#F59E0B"/>
<circle cx="180" cy="60" r="6" fill="#FCD34D"/>
<circle cx="220" cy="100" r="5" fill="#FEF3C7"/>
</svg>
