<svg width="264" height="264" viewBox="0 0 264 264" fill="none" xmlns="http://www.w3.org/2000/svg">
<!-- DataFlare Icon -->
<path d="M0 29.513C0 13.2134 13.2134 0 29.513 0H234.487C250.787 0 264 13.2134 264 29.513V234.487C264 250.787 250.787 264 234.487 264H29.513C13.2134 264 0 250.787 0 234.487V29.513Z" fill="#1E40AF"/>
<!-- Data Flow Network -->
<circle cx="88" cy="88" r="16" fill="#60A5FA"/>
<circle cx="176" cy="88" r="16" fill="#60A5FA"/>
<circle cx="88" cy="176" r="16" fill="#60A5FA"/>
<circle cx="176" cy="176" r="16" fill="#60A5FA"/>
<!-- Connection Lines -->
<path d="M104 88L160 88" stroke="#93C5FD" stroke-width="4" stroke-linecap="round"/>
<path d="M88 104L88 160" stroke="#93C5FD" stroke-width="4" stroke-linecap="round"/>
<path d="M176 104L176 160" stroke="#93C5FD" stroke-width="4" stroke-linecap="round"/>
<path d="M104 176L160 176" stroke="#93C5FD" stroke-width="4" stroke-linecap="round"/>
<!-- Central Hub -->
<circle cx="132" cy="132" r="28" fill="#3B82F6"/>
<circle cx="132" cy="132" r="12" fill="#FFFFFF"/>
<!-- Data Spark -->
<circle cx="200" cy="64" r="8" fill="#F59E0B"/>
</svg>
