<svg preserveAspectRatio="true" viewBox="0 0 1044 241" fill="none" xmlns="http://www.w3.org/2000/svg">
<!-- DataFlare Logo - White Version -->
<!-- Icon Section -->
<path d="M0.937012 27.0463C0.937012 12.1815 12.9873 0.131226 27.8521 0.131226H214.783C229.647 0.131226 241.698 12.1815 241.698 27.0463V213.977C241.698 228.842 229.647 240.892 214.783 240.892H27.852C12.9873 240.892 0.937012 228.842 0.937012 213.977V27.0463Z" fill="#374151"/>
<!-- Data Flow Elements -->
<circle cx="80" cy="80" r="12" fill="#E5E7EB"/>
<circle cx="160" cy="80" r="12" fill="#E5E7EB"/>
<circle cx="80" cy="160" r="12" fill="#E5E7EB"/>
<circle cx="160" cy="160" r="12" fill="#E5E7EB"/>
<!-- Connection Lines -->
<path d="M92 80L148 80" stroke="#F3F4F6" stroke-width="3" stroke-linecap="round"/>
<path d="M80 92L80 148" stroke="#F3F4F6" stroke-width="3" stroke-linecap="round"/>
<path d="M160 92L160 148" stroke="#F3F4F6" stroke-width="3" stroke-linecap="round"/>
<path d="M92 160L148 160" stroke="#F3F4F6" stroke-width="3" stroke-linecap="round"/>
<!-- Central Data Hub -->
<circle cx="120" cy="120" r="20" fill="#D1D5DB"/>
<circle cx="120" cy="120" r="8" fill="#1F2937"/>
<!-- Text Section -->
<text x="280" y="120" font-family="Arial, sans-serif" font-size="48" font-weight="bold" fill="#FFFFFF">Data</text>
<text x="400" y="120" font-family="Arial, sans-serif" font-size="48" font-weight="bold" fill="#E5E7EB">Flare</text>
<!-- Subtitle -->
<text x="280" y="150" font-family="Arial, sans-serif" font-size="16" fill="#9CA3AF">Data Orchestration Platform</text>
</svg>
